<svg width="222" height="90" viewBox="0 0 222 90" fill="none" xmlns="http://www.w3.org/2000/svg">
<path d="M119.683 39.1381C117.608 43.6001 111.813 45.0477 107.47 43.4064C105.197 42.5461 103.477 40.9805 102.421 38.7869C101.951 37.6905 101.56 36.554 101.639 35.3825H107.549C107.549 36.7908 108.606 37.9666 109.857 38.4358C111.66 39.1418 113.849 38.4358 114.749 36.6727C115.258 35.7337 115.1 34.5979 114.512 33.7376C113.535 32.2106 111.617 32.0138 109.971 31.8595C108.094 31.6621 106.134 30.9992 104.492 29.8634C101.281 27.5554 100.653 22.8966 102.26 19.5279C104.334 15.0658 110.129 13.6182 114.473 15.2595C116.745 16.0805 118.426 17.6461 119.522 19.879C119.992 20.8574 120.382 22.0725 120.268 23.2834H114.398C114.398 21.8358 113.339 20.66 112.05 20.2302C110.721 19.6816 109.075 19.9184 108.019 20.8968C106.843 21.9539 106.57 23.6382 107.43 24.9284C108.409 26.4153 110.327 26.6521 111.932 26.7671C113.848 26.9645 115.806 27.6274 117.451 28.7632C120.661 31.0748 121.289 35.773 119.683 39.1381Z" fill="white"/>
<path d="M144.599 20.3094H136.926V43.4464H131.758V20.3094H124.126V15.2207H144.599V20.3094H144.599Z" fill="white"/>
<path d="M158.902 15.1821L145.044 43.4865H150.488L158.903 26.306L167.321 43.4865H172.761L158.903 15.1821H158.902Z" fill="white"/>
<path d="M198.221 43.4478H191.877L186.868 36.0868L185.301 33.854L185.262 33.7752H181.464V43.4441H176.334V15.061H186.71C191.877 15.061 196.107 19.2901 196.107 24.4575C196.107 28.138 193.992 31.3099 190.86 32.8362H190.9L198.221 43.4478ZM190.86 24.4612C190.86 22.2283 189.136 20.4296 186.987 20.3109H181.467V28.6502H186.987C189.136 28.4928 190.86 26.6541 190.86 24.4606V24.4612Z" fill="white"/>
<path d="M222.001 20.3094H214.328V43.4464H209.16V20.3094H201.527V15.2207H222.002V20.3094H222.001Z" fill="white"/>
<path d="M102.393 75.0545V56.0254H104.972V72.4753H113.789V75.0545H102.393Z" fill="white"/>
<path d="M117.632 75.0276V55.9985H120.211V75.0276H117.632Z" fill="white"/>
<path d="M140.714 75.0543V61.8156L133.844 68.7375L126.922 61.8156V75.0543H124.317V55.604L133.792 65.0792L143.319 55.604V75.0543H140.714Z" fill="white"/>
<path d="M163.796 75.0017H161.111L158.979 70.3693H150.952L148.793 75.0017H146.108L154.952 55.9727L163.796 75.0017H163.796ZM157.848 67.9218L154.953 61.7366L152.084 67.9218H157.848Z" fill="white"/>
<path d="M30.2747 14.7373C13.5566 14.7373 0 28.2908 0 45.012C0 61.7331 13.5535 75.2867 30.2747 75.2867C46.9958 75.2867 60.5494 61.7331 60.5494 45.012C60.5494 28.2908 46.9927 14.7373 30.2747 14.7373ZM41.9661 58.7894L30.2747 33.6052L18.5832 58.7894H13.4871L30.2778 22.6628L47.0684 58.7894H41.9661Z" fill="white"/>
<path d="M82.2781 0H79.6836V90H82.2781V0Z" fill="white"/>
</svg>
