<svg width="258" height="90" viewBox="0 0 258 90" fill="none" xmlns="http://www.w3.org/2000/svg">
<path d="M119.682 39.153C117.607 43.615 111.812 45.0626 107.469 43.4213C105.196 42.561 103.476 40.9954 102.42 38.8018C101.95 37.7054 101.559 36.5689 101.638 35.3974H107.548C107.548 36.8057 108.605 37.9815 109.856 38.4507C111.659 39.1567 113.848 38.4507 114.748 36.6876C115.257 35.7486 115.099 34.6128 114.511 33.7524C113.534 32.2255 111.616 32.0287 109.97 31.8744C108.093 31.677 106.133 31.0141 104.491 29.8783C101.28 27.5703 100.652 22.9115 102.259 19.5428C104.333 15.0807 110.127 13.6331 114.471 15.2744C116.744 16.0953 118.425 17.661 119.521 19.8939C119.991 20.8723 120.381 22.0874 120.267 23.2983H114.396C114.396 21.8507 113.338 20.6749 112.049 20.245C110.72 19.6965 109.074 19.9333 108.018 20.9116C106.842 21.9688 106.569 23.6531 107.429 24.9433C108.407 26.4302 110.325 26.667 111.93 26.782C113.847 26.9794 115.805 27.6423 117.45 28.7781C120.66 31.0897 121.288 35.7879 119.682 39.153Z" fill="white"/>
<path d="M144.597 20.3243H136.925V43.4613H131.757V20.3243H124.124V15.2356H144.598V20.3243H144.597Z" fill="white"/>
<path d="M158.901 15.1968L145.043 43.5012H150.487L158.902 26.3206L167.32 43.5012H172.759L158.902 15.1968H158.901Z" fill="white"/>
<path d="M198.22 43.4622H191.876L186.867 36.1012L185.3 33.8684L185.26 33.7896H181.462V43.4585H176.333V15.0754H186.708C191.875 15.0754 196.106 19.3045 196.106 24.4719C196.106 28.1524 193.991 31.3243 190.858 32.8506H190.899L198.22 43.4622ZM190.858 24.4756C190.858 22.2427 189.134 20.444 186.985 20.3253H181.466V28.6646H186.985C189.134 28.5072 190.858 26.6685 190.858 24.475V24.4756Z" fill="white"/>
<path d="M222 20.3243H214.327V43.4613H209.159V20.3243H201.526V15.2356H222.001V20.3243H222Z" fill="white"/>
<path d="M105.208 70.032C105.524 71.0319 106.208 71.7957 107.208 72.1905C108.656 72.7169 110.761 72.2434 111.472 70.7693C111.682 70.3481 111.814 69.8746 111.814 69.4005C111.814 68.2161 110.998 67.1368 109.945 66.6898C109.129 66.3214 108.26 66.2685 107.391 66.1634C105.549 65.9266 103.312 65.0318 102.522 63.1894C101.786 61.6367 101.786 59.7679 102.522 58.1887C103.391 56.2676 105.602 55.0303 108.076 55.0303C109.945 55.0303 111.814 55.7412 113.024 57.2146C113.366 57.5829 113.629 58.0306 113.813 58.4519C114.024 58.8731 114.235 59.3995 114.313 60.0046H111.26C111.207 59.7943 111.129 59.6098 111.023 59.3995C110.707 58.6886 110.023 58.1364 109.26 57.8468C107.865 57.3204 105.917 57.7416 105.101 59.084C104.154 60.6103 104.917 62.6372 106.523 63.3217C107.233 63.6378 108.075 63.7429 108.865 63.8216C110.154 63.9532 111.47 64.3745 112.55 65.1376C114.655 66.6639 114.918 69.77 113.944 71.8228C113.05 73.7439 110.865 75.0076 108.365 75.0076C107.549 75.0076 106.681 74.8495 105.943 74.5341C104.469 73.9812 103.311 72.9549 102.653 71.5602C102.443 71.1389 102.258 70.639 102.18 70.0339H105.207L105.208 70.032Z" fill="white"/>
<path d="M134.502 74.5853H131.817L129.685 69.9528H121.657L119.499 74.5853H116.814L125.657 55.5562L134.501 74.5853H134.502ZM130.764 51.8191C129.921 52.8719 129.027 53.2932 127.842 53.3719C127.026 53.3719 126.184 53.1616 125.315 52.7403C124.868 52.5559 124.368 52.3456 123.841 52.3456C123.21 52.372 122.71 52.5823 122.289 52.9507L120.867 52.1082C121.578 51.187 122.605 50.5554 123.736 50.5554C124.316 50.5554 124.789 50.6606 125.289 50.7922C126.21 51.0289 126.815 51.5818 127.947 51.5818C128.447 51.5818 128.947 51.345 129.369 50.9767L130.763 51.8191H130.764ZM128.553 67.5053L125.658 61.3201L122.789 67.5053H128.553Z" fill="white"/>
<path d="M155.505 65.1099C155.505 70.5842 151.215 75.0321 145.872 75.0321C140.528 75.0321 136.265 70.5842 136.265 65.1099C136.265 59.6356 140.555 55.1348 145.872 55.1348C151.188 55.1348 155.505 59.5827 155.505 65.1099ZM152.768 65.1099C152.768 61.2935 149.662 58.188 145.872 58.188C142.082 58.188 139.003 61.2935 139.003 65.1099C139.003 68.9263 142.056 71.9795 145.872 71.9795C149.689 71.9795 152.768 68.874 152.768 65.1099Z" fill="white"/>
<path d="M184.772 61.61C184.772 64.9529 182.193 67.6636 178.982 67.6636H174.534V74.5855H171.955V55.5564H178.982C182.193 55.5564 184.772 58.2671 184.772 61.61ZM182.193 61.61C182.193 59.6889 180.667 58.1619 178.718 58.1355H174.534V65.0574H178.718C180.666 65.0574 182.193 63.5311 182.193 61.6094V61.61Z" fill="white"/>
<path d="M202.669 74.5855H199.985L197.853 69.953H189.825L187.666 74.5855H184.982L193.825 55.5564L202.669 74.5855H202.669ZM196.722 67.5055L193.826 61.3203L190.958 67.5055H196.722Z" fill="white"/>
<path d="M212.382 75.0854C208.434 75.0854 205.196 71.8483 205.17 67.8738V55.6086H207.749V67.8738C207.749 70.4271 209.828 72.5063 212.382 72.5063C214.935 72.5063 217.04 70.4271 217.014 67.8738V55.6086H219.593V67.8738C219.593 71.8483 216.356 75.0854 212.382 75.0854Z" fill="white"/>
<path d="M223.726 74.6384V55.6094H226.305V72.0593H235.122V74.6384H223.726Z" fill="white"/>
<path d="M257.836 65.1099C257.836 70.5842 253.546 75.0321 248.202 75.0321C242.859 75.0321 238.596 70.5842 238.596 65.1099C238.596 59.6356 242.885 55.1348 248.202 55.1348C253.519 55.1348 257.836 59.5827 257.836 65.1099ZM255.098 65.1099C255.098 61.2935 251.993 58.188 248.203 58.188C244.413 58.188 241.333 61.2935 241.333 65.1099C241.333 68.9263 244.387 71.9795 248.203 71.9795C252.019 71.9795 255.098 68.874 255.098 65.1099Z" fill="white"/>
<path d="M30.2747 14.7383C13.5566 14.7383 0 28.2918 0 45.013C0 61.7341 13.5535 75.2876 30.2747 75.2876C46.9958 75.2876 60.5494 61.7341 60.5494 45.013C60.5494 28.2918 46.9927 14.7383 30.2747 14.7383ZM41.9661 58.7897L30.2747 33.6056L18.5832 58.7897H13.4871L30.2777 22.6632L47.0684 58.7897H41.9661Z" fill="white"/>
<path d="M82.2787 0H79.6842V90H82.2787V0Z" fill="white"/>
</svg>
