<svg width="222" height="90" viewBox="0 0 222 90" fill="none" xmlns="http://www.w3.org/2000/svg">
<path d="M119.682 39.1395C117.607 43.6016 111.812 45.0492 107.469 43.4079C105.196 42.5476 103.476 40.9819 102.42 38.7884C101.95 37.6919 101.56 36.5555 101.638 35.384H107.548C107.548 36.7923 108.605 37.9681 109.857 38.4373C111.66 39.1432 113.848 38.4373 114.748 36.6742C115.258 35.7352 115.1 34.5993 114.511 33.739C113.534 32.2121 111.616 32.0153 109.97 31.861C108.093 31.6636 106.133 31.0006 104.491 29.8648C101.28 27.5569 100.653 22.898 102.259 19.5293C104.334 15.0673 110.128 13.6197 114.472 15.261C116.745 16.0819 118.425 17.6476 119.521 19.8805C119.991 20.8589 120.381 22.074 120.267 23.2848H114.397C114.397 21.8372 113.338 20.6615 112.049 20.2316C110.72 19.6831 109.074 19.9198 108.018 20.8982C106.843 21.9553 106.57 23.6397 107.429 24.9298C108.408 26.4168 110.326 26.6536 111.931 26.7685C113.848 26.9659 115.805 27.6289 117.45 28.7647C120.661 31.0763 121.288 35.7745 119.682 39.1395Z" fill="white"/>
<path d="M144.597 20.3111H136.925V43.4481H131.757V20.3111H124.124V15.2224H144.598V20.3111H144.597Z" fill="white"/>
<path d="M158.901 15.1831L145.043 43.4875H150.487L158.902 26.307L167.32 43.4875H172.76L158.902 15.1831H158.901Z" fill="white"/>
<path d="M198.22 43.4488H191.876L186.867 36.0878L185.3 33.8549L185.26 33.7762H181.462V43.4451H176.333V15.062H186.709C191.875 15.062 196.106 19.291 196.106 24.4585C196.106 28.139 193.991 31.3109 190.858 32.8372H190.899L198.22 43.4488ZM190.858 24.4622C190.858 22.2293 189.135 20.4305 186.985 20.3119H181.466V28.6512H186.985C189.135 28.4938 190.858 26.6551 190.858 24.4615V24.4622Z" fill="white"/>
<path d="M222 20.3111H214.327V43.4481H209.159V20.3111H201.526V15.2224H222.001V20.3111H222Z" fill="white"/>
<path d="M121.5 74.6155H118.052L116.92 73.326C115.42 74.4317 113.525 75.0632 111.551 75.0632C106.234 75.0632 101.944 70.5888 101.944 65.0881C101.944 59.5874 106.234 55.1394 111.551 55.1394C116.868 55.1394 121.158 59.6138 121.158 65.0881C121.158 67.5356 120.289 69.8257 118.842 71.5629L121.5 74.6161L121.5 74.6155ZM116.947 69.4044C117.894 68.22 118.473 66.746 118.473 65.0881C118.473 61.2981 115.341 58.1926 111.551 58.1926C107.761 58.1926 104.656 61.2981 104.656 65.0881C104.656 68.878 107.761 72.01 111.551 72.01C112.814 72.01 113.972 71.6939 114.999 71.0888L112.315 67.9833L114.289 66.2989L116.947 69.4044H116.947Z" fill="white"/>
<path d="M132.159 75.0102C128.211 75.0102 124.974 71.7731 124.948 67.7987V55.5334H127.527V67.7987C127.527 70.3519 129.606 72.4311 132.159 72.4311C134.712 72.4311 136.817 70.3519 136.791 67.7987V55.5334H139.371V67.7987C139.371 71.7731 136.133 75.0102 132.159 75.0102Z" fill="white"/>
<path d="M143.503 74.5369V55.5078H146.082V74.5369H143.503Z" fill="white"/>
<path d="M155.32 74.5369V58.1134H149.924V55.5078H163.321V58.1134H157.899V74.5369H155.32Z" fill="white"/>
<path d="M184.825 65.0354C184.825 70.5097 180.535 74.9577 175.192 74.9577C169.848 74.9577 165.585 70.5097 165.585 65.0354C165.585 59.5611 169.875 55.0603 175.192 55.0603C180.509 55.0603 184.825 59.5082 184.825 65.0354ZM182.088 65.0354C182.088 61.219 178.982 58.1135 175.192 58.1135C171.402 58.1135 168.323 61.219 168.323 65.0354C168.323 68.8518 171.376 71.9051 175.192 71.9051C179.009 71.9051 182.088 68.7995 182.088 65.0354Z" fill="white"/>
<path d="M30.2747 14.7383C13.5566 14.7383 0 28.2918 0 45.013C0 61.7341 13.5535 75.2876 30.2747 75.2876C46.9958 75.2876 60.5494 61.7341 60.5494 45.013C60.5494 28.2918 46.9928 14.7383 30.2747 14.7383ZM41.9661 58.7897L30.2747 33.6056L18.5832 58.7897H13.4871L30.2778 22.6632L47.0684 58.7897H41.9661Z" fill="white"/>
<path d="M82.2788 0H79.6843V90H82.2788V0Z" fill="white"/>
</svg>
