<svg width="275" height="90" viewBox="0 0 275 90" fill="none" xmlns="http://www.w3.org/2000/svg">
<path d="M119.719 39.1049C117.644 43.567 111.849 45.0145 107.506 43.3732C105.233 42.5129 103.513 40.9473 102.457 38.7537C101.987 37.6573 101.596 36.5208 101.675 35.3494H107.585C107.585 36.7576 108.642 37.9334 109.893 38.4026C111.696 39.1086 113.885 38.4026 114.785 36.6395C115.294 35.7005 115.136 34.5647 114.548 33.7044C113.571 32.1774 111.653 31.9806 110.007 31.8263C108.129 31.6289 106.17 30.966 104.528 29.8302C101.317 27.5222 100.689 22.8634 102.295 19.4947C104.37 15.0326 110.164 13.585 114.508 15.2263C116.781 16.0473 118.462 17.6129 119.558 19.8458C120.028 20.8242 120.418 22.0393 120.304 23.2502H114.433C114.433 21.8026 113.375 20.6268 112.086 20.1969C110.757 19.6484 109.111 19.8852 108.054 20.8636C106.879 21.9207 106.606 23.605 107.466 24.8952C108.444 26.3821 110.362 26.6189 111.967 26.7339C113.884 26.9313 115.842 27.5942 117.487 28.73C120.697 31.0416 121.325 35.7398 119.719 39.1049Z" fill="white"/>
<path d="M144.634 20.2762H136.962V43.4132H131.794V20.2762H124.161V15.1875H144.635V20.2762H144.634Z" fill="white"/>
<path d="M158.938 15.1484L145.08 43.4528H150.524L158.939 26.2723L167.357 43.4528H172.796L158.939 15.1484H158.938Z" fill="white"/>
<path d="M198.257 43.4141H191.913L186.904 36.0531L185.337 33.8203L185.297 33.7416H181.499V43.4104H176.37V15.0273H186.745C191.912 15.0273 196.143 19.2564 196.143 24.4238C196.143 28.1043 194.028 31.2762 190.895 32.8025H190.936L198.257 43.4141ZM190.895 24.4275C190.895 22.1946 189.171 20.3959 187.022 20.2772H181.503V28.6165H187.022C189.171 28.4591 190.895 26.6204 190.895 24.4269V24.4275Z" fill="white"/>
<path d="M222.037 20.2762H214.364V43.4132H209.196V20.2762H201.563V15.1875H222.038V20.2762H222.037Z" fill="white"/>
<path d="M118.826 74.5289V61.2902L111.956 68.2121L105.034 61.2902V74.5289H102.429V55.0786L111.904 64.5538L121.431 55.0786V74.5289H118.826Z" fill="white"/>
<path d="M125.537 74.5288V55.4998H137.829V58.1053H128.143V63.7112H134.828V66.3168H128.143V71.9227H137.829V74.5282H125.537V74.5288Z" fill="white"/>
<path d="M152.699 74.5025L148.251 67.3697L143.803 74.5025H140.882L146.804 65.0009L140.882 55.447H143.803L148.251 62.6057L152.726 55.447H155.647L149.725 65.0009L155.621 74.5025H152.699Z" fill="white"/>
<path d="M158.963 74.5024V55.4734H161.542V74.5024H158.963Z" fill="white"/>
<path d="M180.729 73.002C179.097 74.2915 177.098 75.0024 174.939 75.0024C169.57 75.0024 165.227 70.528 165.227 65.0273C165.227 59.5265 169.57 55.1309 174.939 55.1309C177.098 55.1309 179.097 55.8417 180.729 57.1313L178.861 59.0789C177.781 58.2893 176.387 57.8416 174.939 57.8416C171.018 57.8416 167.859 61.1051 167.859 65.0267C167.859 68.9482 171.018 72.2911 174.939 72.2911C176.387 72.2911 177.781 71.8434 178.861 71.028L180.729 73.002Z" fill="white"/>
<path d="M202.391 65.001C202.391 70.4753 198.101 74.9233 192.757 74.9233C187.414 74.9233 183.151 70.4753 183.151 65.001C183.151 59.5267 187.44 55.0259 192.757 55.0259C198.074 55.0259 202.391 59.4738 202.391 65.001ZM199.653 65.001C199.653 61.1846 196.548 58.0791 192.758 58.0791C188.968 58.0791 185.888 61.1846 185.888 65.001C185.888 68.8174 188.942 71.8706 192.758 71.8706C196.574 71.8706 199.653 68.7651 199.653 65.001Z" fill="white"/>
<path d="M233.263 73.002C231.631 74.2915 229.631 75.0024 227.473 75.0024C222.104 75.0024 217.761 70.528 217.761 65.0273C217.761 59.5265 222.104 55.1309 227.473 55.1309C229.631 55.1309 231.631 55.8417 233.263 57.1313L231.395 59.0789C230.315 58.2893 228.921 57.8416 227.473 57.8416C223.551 57.8416 220.393 61.1051 220.393 65.0267C220.393 68.9482 223.551 72.2911 227.473 72.2911C228.921 72.2911 230.315 71.8434 231.395 71.028L233.263 73.002Z" fill="white"/>
<path d="M236.712 74.5024V55.4734H239.291V74.5024H236.712Z" fill="white"/>
<path d="M248.528 74.5024V58.0789H243.133V55.4734H256.53V58.0789H251.108V74.5024H248.528Z" fill="white"/>
<path d="M265.689 74.5293V66.9758L259.583 55.4744H262.399L266.952 64.2915L271.558 55.4744H274.348L268.268 66.9758V74.5293H265.689Z" fill="white"/>
<path d="M30.2747 14.738C13.5566 14.738 3.05176e-05 28.2916 3.05176e-05 45.0127C3.05176e-05 61.7339 13.5536 75.2874 30.2747 75.2874C46.9959 75.2874 60.5494 61.7339 60.5494 45.0127C60.5494 28.2916 46.9928 14.738 30.2747 14.738ZM41.9662 58.7895L30.2747 33.6054L18.5833 58.7895H13.4871L30.2778 22.6629L47.0684 58.7895H41.9662Z" fill="white"/>
<path d="M82.2782 0H79.6837V90H82.2782V0Z" fill="white"/>
</svg>
